<svg width="88" height="88" viewBox="0 0 88 88" fill="none" xmlns="http://www.w3.org/2000/svg">
<g filter="url(#filter0_d_3695_18045)">
<circle cx="44" cy="46" r="36" fill="#FF812D"/>
</g>
<path d="M56.6615 38.5V39.8333V41.1667V46C56.6615 50.8333 52.8281 54.6667 47.9948 54.6667H38.8281H37.4948C36.9948 54.6667 36.6615 54.6667 36.3281 54.8333C36.6615 57.3333 38.9948 59.3333 41.6615 59.3333H51.3281C52.3281 59.3333 53.4948 59.6667 54.3281 60.3333L60.1615 64.5C60.3281 64.6667 60.6615 64.6667 60.9948 64.6667C61.1615 64.6667 61.3281 64.6667 61.6615 64.5C62.1615 64.3333 62.3281 63.8333 62.3281 63.3333V44.1667C62.3281 41 59.8281 38.5 56.6615 38.5Z" fill="white"/>
<path d="M37.4974 51.833H38.8307H48.1641C51.4974 51.833 54.1641 49.1663 54.1641 45.833V41.1663V39.833V38.4997V35.333C54.1641 31.9997 51.4974 29.333 48.1641 29.333H31.6641C28.3307 29.333 25.6641 31.9997 25.6641 35.333V56.4997C25.6641 56.9997 25.9974 57.4997 26.3307 57.6663C26.4974 57.6663 26.8307 57.6663 26.9974 57.6663C27.3307 57.6663 27.4974 57.6663 27.8307 57.4997L34.1641 52.9997C34.8307 52.4997 35.4974 52.333 36.1641 51.9997C36.4974 51.9997 36.9974 51.833 37.4974 51.833Z" fill="white"/>
<defs>
<filter id="filter0_d_3695_18045" x="0" y="0" width="88" height="88" filterUnits="userSpaceOnUse" color-interpolation-filters="sRGB">
<feFlood flood-opacity="0" result="BackgroundImageFix"/>
<feColorMatrix in="SourceAlpha" type="matrix" values="0 0 0 0 0 0 0 0 0 0 0 0 0 0 0 0 0 0 127 0" result="hardAlpha"/>
<feOffset dy="-2"/>
<feGaussianBlur stdDeviation="4"/>
<feComposite in2="hardAlpha" operator="out"/>
<feColorMatrix type="matrix" values="0 0 0 0 0 0 0 0 0 0 0 0 0 0 0 0 0 0 0.16 0"/>
<feBlend mode="normal" in2="BackgroundImageFix" result="effect1_dropShadow_3695_18045"/>
<feBlend mode="normal" in="SourceGraphic" in2="effect1_dropShadow_3695_18045" result="shape"/>
</filter>
</defs>
</svg>
