<svg width="24" height="24" viewBox="0 0 24 24" fill="none" xmlns="http://www.w3.org/2000/svg">
<g clip-path="url(#clip0_3836_18068)">
<path d="M22 0H2C0.89543 0 0 0.89543 0 2V22C0 23.1046 0.89543 24 2 24H22C23.1046 24 24 23.1046 24 22V2C24 0.89543 23.1046 0 22 0Z" fill="#1C2730"/>
<mask id="mask0_3836_18068" style="mask-type:luminance" maskUnits="userSpaceOnUse" x="3" y="6" width="18" height="12">
<path d="M20.4731 6.05096H3.52734V17.9491H20.4731V6.05096Z" fill="white"/>
</mask>
<g mask="url(#mask0_3836_18068)">
<path fill-rule="evenodd" clip-rule="evenodd" d="M18.6208 6.40623C19.35 6.60168 19.9241 7.17759 20.119 7.90894C20.4731 9.23446 20.4731 12.0001 20.4731 12.0001C20.4731 12.0001 20.4731 14.7656 20.119 16.0913C19.9241 16.8225 19.35 17.3984 18.6208 17.594C17.2993 17.9491 12.0002 17.9491 12.0002 17.9491C12.0002 17.9491 6.70114 17.9491 5.37962 17.594C4.65054 17.3984 4.0763 16.8225 3.88144 16.0913C3.52734 14.7656 3.52734 12.0001 3.52734 12.0001C3.52734 12.0001 3.52734 9.23446 3.88144 7.90894C4.0763 7.17759 4.65054 6.60168 5.37962 6.40623C6.70114 6.05101 12.0002 6.05101 12.0002 6.05101C12.0002 6.05101 17.2993 6.05101 18.6208 6.40623ZM14.6964 12.0001L10.2674 14.511V9.48905L14.6964 12.0001Z" fill="white"/>
</g>
</g>
<defs>
<clipPath id="clip0_3836_18068">
<rect width="24" height="24" fill="white"/>
</clipPath>
</defs>
</svg>
