<svg width="24" height="24" viewBox="0 0 24 24" fill="none" xmlns="http://www.w3.org/2000/svg">
<rect width="24" height="24" rx="2" fill="#1C2730"/>
<path fill-rule="evenodd" clip-rule="evenodd" d="M16 5.04491C16 4.81897 15.8168 4.63582 15.5909 4.63582H13.5455C11.4013 4.52901 9.57341 6.17408 9.45455 8.31764V10.5267H7.40909C7.18316 10.5267 7 10.7099 7 10.9358V13.0631C7 13.289 7.18316 13.4722 7.40909 13.4722H9.45455V18.954C9.45455 19.1799 9.6377 19.3631 9.86364 19.3631H12.3182C12.5441 19.3631 12.7273 19.1799 12.7273 18.954V13.4722H14.8709C15.0581 13.4749 15.2232 13.3502 15.2718 13.1695L15.8609 11.0422C15.8939 10.9197 15.8682 10.7888 15.7913 10.6879C15.7144 10.587 15.595 10.5274 15.4682 10.5267H12.7273V8.31764C12.7694 7.89799 13.1237 7.57916 13.5455 7.58127H15.5909C15.8168 7.58127 16 7.39812 16 7.17218V5.04491Z" fill="white"/>
</svg>
