<svg width="24" height="24" viewBox="0 0 24 24" fill="none" xmlns="http://www.w3.org/2000/svg">
<g clip-path="url(#clip0_3805_18398)">
<path d="M22 0H2C0.89543 0 0 0.89543 0 2V22C0 23.1046 0.89543 24 2 24H22C23.1046 24 24 23.1046 24 22V2C24 0.89543 23.1046 0 22 0Z" fill="#333333"/>
<mask id="mask0_3805_18398" style="mask-type:luminance" maskUnits="userSpaceOnUse" x="3" y="6" width="18" height="12">
<path d="M20.4729 6.05096H3.5271V17.9491H20.4729V6.05096Z" fill="white"/>
</mask>
<g mask="url(#mask0_3805_18398)">
<path fill-rule="evenodd" clip-rule="evenodd" d="M18.6206 6.40625C19.3498 6.6017 19.9239 7.17761 20.1188 7.90896C20.4729 9.23448 20.4729 12.0001 20.4729 12.0001C20.4729 12.0001 20.4729 14.7656 20.1188 16.0913C19.9239 16.8225 19.3498 17.3984 18.6206 17.594C17.2991 17.9491 12 17.9491 12 17.9491C12 17.9491 6.7009 17.9491 5.37938 17.594C4.6503 17.3984 4.07606 16.8225 3.8812 16.0913C3.5271 14.7656 3.5271 12.0001 3.5271 12.0001C3.5271 12.0001 3.5271 9.23448 3.8812 7.90896C4.07606 7.17761 4.6503 6.6017 5.37938 6.40625C6.7009 6.05103 12 6.05103 12 6.05103C12 6.05103 17.2991 6.05103 18.6206 6.40625ZM14.6962 12.0001L10.2672 14.511V9.48907L14.6962 12.0001Z" fill="#D9D9D9"/>
</g>
</g>
<defs>
<clipPath id="clip0_3805_18398">
<rect width="24" height="24" fill="white"/>
</clipPath>
</defs>
</svg>
