<svg width="18" height="18" viewBox="0 0 18 18" fill="none" xmlns="http://www.w3.org/2000/svg">
<path d="M7.2546 2C8.03034 0.666667 9.96966 0.666667 10.7454 2L17.727 14C18.5027 15.3333 17.533 17 15.9816 17H2.01842C0.466954 17 -0.502711 15.3333 0.27302 14L7.2546 2Z" fill="#FFD600"/>
<path d="M7.2829 6.9799C7.13361 5.93492 7.94447 5 9.00005 5C10.0556 5 10.8665 5.93492 10.7172 6.9799L10.1415 11.0101C10.0603 11.5781 9.57385 12 9.00005 12C8.42626 12 7.93978 11.5781 7.85863 11.0101L7.2829 6.9799Z" fill="#1C2730"/>
<path d="M10.0001 14C10.0001 14.5523 9.55234 15 9.00005 15C8.44777 15 8.00005 14.5523 8.00005 14C8.00005 13.4477 8.44777 13 9.00005 13C9.55234 13 10.0001 13.4477 10.0001 14Z" fill="#1C2730"/>
</svg>
