<svg width="24" height="24" viewBox="0 0 24 24" fill="none" xmlns="http://www.w3.org/2000/svg">
<rect width="24" height="24" rx="2" fill="#333333"/>
<path fill-rule="evenodd" clip-rule="evenodd" d="M18.5506 15.4926C18.8381 15.2051 18.9996 14.8152 18.9996 14.4087V6.74456C18.9996 6.33803 18.8381 5.94815 18.5506 5.66069C18.2632 5.37323 17.8733 5.21173 17.4667 5.21173H6.73693C6.3304 5.21173 5.94052 5.37323 5.65306 5.66069C5.3656 5.94815 5.2041 6.33803 5.2041 6.74456V18.6329C5.2041 18.771 5.37111 18.8402 5.46878 18.7425L8.22435 15.987C8.25343 15.9579 8.29286 15.9415 8.33398 15.9415H17.4667C17.8733 15.9415 18.2632 15.78 18.5506 15.4926ZM9.32978 11.4522C9.84846 11.4522 10.2689 11.0318 10.2689 10.5131C10.2689 9.9944 9.84846 9.57393 9.32978 9.57393C8.8111 9.57393 8.39062 9.9944 8.39062 10.5131C8.39062 11.0318 8.8111 11.4522 9.32978 11.4522ZM13.3217 10.5131C13.3217 11.0318 12.9012 11.4522 12.3825 11.4522C11.8638 11.4522 11.4434 11.0318 11.4434 10.5131C11.4434 9.9944 11.8638 9.57393 12.3825 9.57393C12.9012 9.57393 13.3217 9.9944 13.3217 10.5131ZM15.4345 11.4522C15.9532 11.4522 16.3737 11.0318 16.3737 10.5131C16.3737 9.9944 15.9532 9.57392 15.4345 9.57392C14.9158 9.57392 14.4953 9.9944 14.4953 10.5131C14.4953 11.0318 14.9158 11.4522 15.4345 11.4522Z" fill="white"/>
</svg>
