<svg width="65" height="56" viewBox="0 0 65 56" fill="none" xmlns="http://www.w3.org/2000/svg">
<path d="M47.4661 52.9644V20.4993C47.4661 19.8276 47.0183 19.3799 46.3467 19.3799H41.7567C41.085 19.3799 40.6373 19.8277 40.6373 20.4993V52.9644H36.943V32.8136C36.943 32.1418 36.4951 31.6942 35.8236 31.6942H31.2336C30.5618 31.6942 30.1142 32.142 30.1142 32.8136V52.9643H26.4199V24.9773C26.4199 24.3056 25.972 23.8579 25.3004 23.8579H20.7105C20.0387 23.8579 19.5911 24.3057 19.5911 24.9773V52.9644H15.6729V39.5306C15.6729 38.8588 15.225 38.4112 14.5534 38.4112H9.96347C9.29172 38.4112 8.84404 38.859 8.84404 39.5306V52.9644H2.239V20.7232H0C0 40.8739 0 34.9408 0 55.2034C8.40974 55.2034 14.7607 55.2034 19.48 55.2034C28.4981 55.2034 31.5545 55.2034 31.6031 55.2034C36.1895 55.2034 42.3166 55.2034 50.3768 55.2034V52.9644H47.4661ZM13.4337 52.9644H11.0827V40.6502H13.4337V52.9644ZM23.9568 52.9644H21.6059V26.0967H23.9568V52.9644ZM34.5919 52.9644H32.2409V33.9332H34.5919V52.9644ZM45.1151 52.9644H42.7642V21.6187H45.1151V52.9644Z" fill="white"/>
<path d="M46.4991 9V17.5H60C60 18.5 59.9 20.8 59.5 22C59 23.5 56.5 26.5 54.5 28.5C52.5 30.5 50 30 45.5 30.5C41 31 37.5 27 36.5 26.5C35.5 26 33.9991 20.5 33.4991 19.5C32.9991 18.5 34.4991 14 34.9991 12C35.4991 10 39.4991 6.5 41.4991 5.5C43.0991 4.7 45.4991 4.5 46.4991 4.5V9Z" fill="#F48831"/>
<path d="M60.0418 16.6389H47.6987V4.29575C47.6987 3.79697 47.2997 3.39795 46.8009 3.39795C39.0066 3.39795 32.6621 9.74244 32.6621 17.5367C32.6621 25.331 39.0066 31.6755 46.8009 31.6755C54.5951 31.6755 60.9396 25.331 60.9396 17.5367C60.9396 17.0446 60.534 16.6389 60.0418 16.6389ZM46.8009 29.8799C39.9975 29.8799 34.4577 24.3401 34.4577 17.5367C34.4577 11.0326 39.512 5.68569 45.9031 5.22681V17.5367C45.9031 18.0355 46.3021 18.4345 46.8009 18.4345H59.1108C58.6519 24.8256 53.305 29.8799 46.8009 29.8799Z" fill="white"/>
<path d="M64.3334 14.0922C64.3201 10.6606 63.0632 7.35535 60.7954 4.78164C58.1087 1.74241 54.2514 0 50.1947 0C49.6959 0 49.2969 0.399024 49.2969 0.897805V14.1388C49.2969 14.6375 49.6959 15.0366 50.1947 15.0366H63.4356C63.9344 15.0366 64.3334 14.6375 64.3334 14.1388C64.3334 14.1255 64.3334 14.1122 64.3334 14.0922ZM51.0925 13.2476V1.83551C54.298 2.06828 57.304 3.55132 59.4454 5.97871C61.241 8.00709 62.3051 10.5608 62.5046 13.2476H51.0925Z" fill="white"/>
</svg>
