<svg width="17" height="16" viewBox="0 0 17 16" fill="none" xmlns="http://www.w3.org/2000/svg">
<g clip-path="url(#clip0_4138_1661)">
<path d="M6.50001 14.6667C6.8682 14.6667 7.16668 14.3682 7.16668 14C7.16668 13.6319 6.8682 13.3334 6.50001 13.3334C6.13182 13.3334 5.83334 13.6319 5.83334 14C5.83334 14.3682 6.13182 14.6667 6.50001 14.6667Z" stroke="white" stroke-width="1.5" stroke-linecap="round" stroke-linejoin="round"/>
<path d="M13.8333 14.6667C14.2015 14.6667 14.5 14.3682 14.5 14C14.5 13.6319 14.2015 13.3334 13.8333 13.3334C13.4651 13.3334 13.1667 13.6319 13.1667 14C13.1667 14.3682 13.4651 14.6667 13.8333 14.6667Z" stroke="white" stroke-width="1.5" stroke-linecap="round" stroke-linejoin="round"/>
<path d="M1.16666 0.666626H3.83332L5.61999 9.59329C5.68095 9.90022 5.84793 10.1759 6.09169 10.3722C6.33545 10.5684 6.64046 10.6726 6.95332 10.6666H13.4333C13.7462 10.6726 14.0512 10.5684 14.295 10.3722C14.5387 10.1759 14.7057 9.90022 14.7667 9.59329L15.8333 3.99996H4.49999" stroke="white" stroke-width="1.5" stroke-linecap="round" stroke-linejoin="round"/>
</g>
<defs>
<clipPath id="clip0_4138_1661">
<rect width="16" height="16" fill="white" transform="translate(0.5)"/>
</clipPath>
</defs>
</svg>
