<svg width="21" height="14" viewBox="0 0 21 14" fill="none" xmlns="http://www.w3.org/2000/svg">
<path d="M19.9098 2.72102C19.6858 1.95609 19.0259 1.35374 18.1878 1.14931C16.6689 0.777784 10.578 0.777784 10.578 0.777784C10.578 0.777784 4.48713 0.777784 2.96815 1.14931C2.13013 1.35374 1.4701 1.95609 1.24612 2.72102C0.839111 4.10741 0.839111 7.00001 0.839111 7.00001C0.839111 7.00001 0.839111 9.89257 1.24612 11.2791C1.4701 12.0439 2.13013 12.6463 2.96815 12.8508C4.48713 13.2222 10.578 13.2222 10.578 13.2222C10.578 13.2222 16.6689 13.2222 18.1878 12.8508C19.0259 12.6463 19.6858 12.0439 19.9098 11.2791C20.3169 9.89257 20.3169 7.00001 20.3169 7.00001C20.3169 7.00001 20.3169 4.10741 19.9098 2.72102Z" fill="white"/>
<path d="M8.63013 9.66669L13.4996 7.00015L8.63013 4.33335V9.66669Z" fill="#404A51"/>
</svg>
